PathFileType	4	(X/Y/Z)	Run_400 01
DataRate	CameraRate	NumFrames	NumMarkers	Units	OrigDataRate	OrigDataStartFrame	OrigNumFrames
120	120	4	42	mm	120	177	128
Frame#	Time	LASI			RASI			LPSI			RTH1			RTH2			RTH3			LTH1			LTH2			LTH3			RTB1			RTB2			RTB3			LTB1			LTB2			LTB3			RCAL			RTOE			RMT5			LCAL			LTOE			LMT5			LACR			RACR			CLAV			C7			RUA1			RUA2			RUA3			RLEL			RMEL			LUA1			LUA2			LUA3			LLEL			LMEL			RFAsuperior			RFAradius			LFAsuperior			LFAradius			LFAulna			RFAulna			RPSI		
		X1	Y1	Z1	X2	Y2	Z2	X3	Y3	Z3	X4	Y4	Z4	X5	Y5	Z5	X6	Y6	Z6	X7	Y7	Z7	X8	Y8	Z8	X9	Y9	Z9	X10	Y10	Z10	X11	Y11	Z11	X12	Y12	Z12	X13	Y13	Z13	X14	Y14	Z14	X15	Y15	Z15	X16	Y16	Z16	X17	Y17	Z17	X18	Y18	Z18	X19	Y19	Z19	X20	Y20	Z20	X21	Y21	Z21	X22	Y22	Z22	X23	Y23	Z23	X24	Y24	Z24	X25	Y25	Z25	X26	Y26	Z26	X27	Y27	Z27	X28	Y28	Z28	X29	Y29	Z29	X30	Y30	Z30	X31	Y31	Z31	X32	Y32	Z32	X33	Y33	Z33	X34	Y34	Z34	X35	Y35	Z35	X36	Y36	Z36	X37	Y37	Z37	X38	Y38	Z38	X39	Y39	Z39	X40	Y40	Z40	X41	Y41	Z41	X42	Y42	Z42	

177	  1.475000	1097.601682	954.080659	-448.136369	1077.943744	961.962686	-207.226592	927.731681	1001.610417	-400.508335	1001.885802	807.724606	-167.266918	1066.663090	659.208460	-194.201037	1001.706492	568.257625	-219.821183	1084.044166	800.567582	-512.883205	1214.355144	764.662548	-499.461452	1224.906087	632.269523	-501.162738	989.179073	337.747840	-295.945209	912.989569	311.836845	-243.532695	869.880632	200.492461	-311.878714	1191.997560	481.577909	-436.023903	1086.223133	511.424221	-478.957748	995.856836	473.528569	-412.978393	682.441551	123.441181	-339.063045	888.814654	 75.476052	-356.557481	863.187231	 43.186713	-252.054111	848.963863	571.821069	-395.400843	863.034111	365.128827	-373.970497	835.451756	376.027601	-479.194630	1071.593987	1446.662112	-505.686328	1091.032075	1422.111011	-136.050752	1155.081543	1386.738602	-304.107856	1039.723111	1476.197422	-326.423088	1063.299927	1333.343465	-94.396911	1068.197205	1243.725915	-113.993444	980.321215	1245.853449	-88.908206	952.692275	1134.523826	-72.683798	931.487617	1132.364680	-137.953867	1016.744411	1392.021676	-555.580551	946.395727	1360.045758	-517.912256	967.091963	1302.570905	-577.735080	857.677550	1247.400221	-604.379188	835.870820	1245.480478	-534.866973	1044.468930	1100.652912	-75.486292	1181.929826	1000.583250	-124.315779	917.791343	1185.200349	-607.996415	1024.304333	1027.513288	-543.372374	968.733208	1005.315095	-577.570235	1136.340575	947.878476	-123.344906	919.488623	1004.534431	-302.773284	
178	  1.483333	1098.492706	959.692134	-448.455059	1079.886120	964.095349	-207.436089	928.627441	1006.810089	-399.895769	998.200378	811.277104	-167.518599	1054.280741	660.644270	-195.215714	983.981010	573.034713	-219.689002	1088.330410	808.809680	-514.269602	1219.854201	780.147841	-499.236926	1237.111751	648.599550	-503.185547	963.121059	341.758920	-294.138565	886.068505	317.951299	-241.516824	841.641048	206.432870	-309.419516	1212.789028	489.835961	-435.920415	1104.191429	510.320909	-479.051210	1017.625548	463.919748	-413.403599	653.450574	134.148626	-336.288041	856.423676	 76.572956	-355.501492	829.465556	 43.195208	-251.351755	861.991526	548.199544	-394.737408	896.686531	343.988020	-375.321565	866.832964	352.689180	-479.994620	1067.084479	1452.635424	-505.887294	1094.594874	1428.782202	-137.510789	1155.028140	1392.725279	-307.054297	1039.108496	1480.945911	-326.654414	1068.687304	1339.914916	-95.310274	1074.102152	1250.724523	-113.204127	985.822996	1251.831236	-88.913391	960.814676	1139.660318	-71.428635	939.214809	1136.941765	-136.941649	1010.262675	1400.484372	-554.548971	940.749859	1368.800614	-515.141222	958.910569	1311.940561	-576.819828	847.590989	1258.446071	-600.397357	828.759221	1255.595733	-530.123843	1054.779656	1109.825554	-75.101212	1197.247665	1019.847981	-128.869225	907.201768	1196.131453	-607.111276	1016.457825	1038.453018	-546.978847	960.058990	1016.265639	-579.569214	1155.402737	964.690096	-125.433714	921.388921	1009.148016	-302.440660	
179	  1.491667	1099.936369	966.287473	-448.696582	1082.369758	967.156032	-207.639210	929.961104	1012.744954	-398.997165	994.921379	815.671740	-167.933500	1042.665666	663.571051	-196.345191	967.169519	579.574988	-219.438938	1092.824843	818.194048	-515.859477	1224.614594	795.652878	-498.816488	1247.408957	665.008917	-504.939706	937.986512	347.742219	-292.329268	860.490452	325.905213	-239.019506	815.016990	213.987781	-306.513227	1232.435494	497.768532	-435.758357	1121.740005	508.801722	-479.285251	1039.311623	453.841937	-413.916409	626.457189	146.640030	-333.157887	824.539856	 77.278863	-354.555047	795.931462	 43.199784	-250.778922	877.099733	522.950730	-394.222354	932.166811	323.108882	-376.419469	900.156857	329.113725	-480.297711	1062.792419	1459.480297	-505.946616	1098.049466	1436.011992	-139.221068	1154.969744	1399.552857	-310.036697	1038.480371	1486.260568	-327.111118	1074.107190	1346.953929	-96.541215	1079.719971	1258.338877	-112.963250	991.073785	1258.784944	-89.008914	968.217069	1145.901341	-70.143932	946.501682	1143.061953	-136.031816	1004.267216	1409.893856	-553.367193	935.539599	1378.326530	-512.721137	951.434439	1322.146193	-575.854618	838.419394	1270.119079	-596.476010	822.090657	1266.517324	-525.529825	1063.891371	1120.171810	-74.754586	1210.418707	1040.123671	-133.410505	897.872283	1208.133330	-605.785662	1009.810230	1050.809012	-549.756362	952.676904	1028.316410	-580.748978	1172.440119	982.762389	-127.866654	924.047496	1014.408236	-301.450871	
180	  1.500000	1101.820402	973.687684	-448.831662	1085.234754	970.885048	-208.018242	931.723091	1019.243083	-397.873930	992.399223	820.963840	-168.351750	1031.973639	667.818423	-197.413857	951.582383	587.648210	-218.644042	1097.413454	828.840411	-517.636989	1228.606141	810.668021	-498.213193	1255.554007	680.737497	-506.234194	914.084985	355.370266	-290.183862	836.455712	335.299186	-236.036636	790.415120	222.798857	-303.083912	1250.856624	505.089247	-435.779710	1138.952197	506.616943	-479.639749	1061.390439	443.332690	-414.522249	601.995359	160.695452	-329.856701	793.321548	 77.486703	-353.807450	762.645687	 43.242012	-250.405111	894.474941	496.611725	-394.078315	969.303601	302.896950	-377.204646	935.607395	305.699550	-480.137337	1058.871720	1466.862383	-505.853470	1101.322915	1443.706281	-141.163726	1154.943049	1406.971747	-312.953854	1037.917688	1492.021611	-327.785470	1079.129280	1354.561353	-97.900563	1084.940742	1266.494967	-113.327504	996.093141	1266.471491	-89.123893	974.981240	1153.052822	-68.850926	953.355424	1150.256354	-135.154137	998.974441	1419.790422	-552.114861	930.987487	1388.438822	-510.579302	944.804071	1332.820915	-574.812246	830.386443	1282.191269	-592.748780	816.060225	1278.072779	-521.209961	1071.929218	1131.500084	-74.544411	1221.470806	1060.817537	-137.796136	889.834972	1220.758673	-604.100640	1004.148744	1064.005419	-551.815404	946.423428	1041.053581	-581.183273	1187.379639	1001.446676	-130.599147	927.201912	1020.208895	-299.870135	
